<svg width="30" height="31" viewBox="0 0 30 31" fill="none" xmlns="http://www.w3.org/2000/svg">
<path d="M6.9651 12.8179C7.60849 12.8179 8.13006 12.2963 8.13006 11.6529C8.13006 11.0095 7.60849 10.488 6.9651 10.488C6.32174 10.488 5.80017 11.0095 5.80017 11.6529C5.80017 12.2963 6.32174 12.8179 6.9651 12.8179Z" fill="#6061F0"/>
<path d="M3.79383 16.3988C4.43723 16.3988 4.95879 15.8772 4.95879 15.2338C4.95879 14.5904 4.43723 14.0689 3.79383 14.0689C3.15047 14.0689 2.62891 14.5904 2.62891 15.2338C2.62891 15.8772 3.15047 16.3988 3.79383 16.3988Z" fill="#6061F0"/>
<path fill-rule="evenodd" clip-rule="evenodd" d="M23.9416 4.01207C22.623 3.32909 21.0004 3.84435 20.3175 5.16292L17.3345 10.922C17.3185 10.9529 17.3047 10.9843 17.293 11.0161C15.8319 10.966 14.3844 11.6115 13.4083 12.7539C12.2581 14.1 10.8431 15.5689 9.63396 16.319C7.91007 17.3884 6.48491 17.7738 5.59988 17.9106C5.08227 17.9906 4.66215 18.3239 4.4575 18.756C4.24373 19.2074 4.25984 19.799 4.67526 20.2567C5.57836 21.2519 7.33908 22.882 10.5686 24.9359C12.8054 26.3586 14.8108 27.1454 15.8901 27.5099C16.7173 27.7893 17.6013 27.4698 18.0759 26.7589C18.6759 25.8603 19.7298 24.1655 20.6346 22.1033C21.304 20.5776 21.8807 19.0052 22.4326 17.4355C22.8982 16.1113 22.6888 14.7145 21.9809 13.6105L25.0897 7.6416C25.7767 6.32247 25.2623 4.69613 23.9416 4.01207ZM20.8085 12.3799L23.6633 6.89868C23.9394 6.36858 23.7327 5.71501 23.2019 5.44013C22.672 5.16567 22.02 5.37273 21.7455 5.90262L18.9118 11.3735C19.0066 11.4138 19.1008 11.4575 19.1941 11.5049L20.2296 12.0299C20.4335 12.1333 20.6267 12.2505 20.8085 12.3799ZM20.9154 16.902C20.8008 17.2279 20.68 17.5669 20.5548 17.9121L14.0286 14.4872C14.2386 14.253 14.4402 14.0219 14.6309 13.7987C15.6023 12.6619 17.1967 12.2953 18.4668 12.9393L19.5023 13.4643C20.7781 14.1111 21.3813 15.5769 20.9154 16.902ZM10.4818 17.6856C11.2753 17.1934 12.1034 16.474 12.8804 15.7008L12.8908 15.7064L19.9882 19.431C19.7152 20.1409 19.4346 20.8354 19.1619 21.4571C18.3075 23.4044 17.3073 25.0139 16.7384 25.8659C16.6573 25.9873 16.5256 26.0271 16.4047 25.9862C15.9301 25.8259 15.2519 25.5737 14.4435 25.2078C14.8188 24.8122 15.363 24.1655 15.8845 23.2769C16.1099 22.893 15.9797 22.4056 15.5936 22.1883C15.2076 21.971 14.7119 22.1061 14.4866 22.4901C14.0674 23.2042 13.5553 23.9078 12.9275 24.4565C12.4487 24.1981 11.9467 23.9065 11.4316 23.5789C11.0128 23.3125 10.6206 23.0542 10.2534 22.8045C10.4445 22.676 10.654 22.5185 10.8788 22.3256C11.2171 22.0356 11.2506 21.5342 10.9539 21.2057C10.6571 20.8773 10.1423 20.8462 9.80415 21.1362C9.30637 21.5631 8.95874 21.7256 8.81861 21.7804C7.53813 20.8183 6.68022 20.0284 6.12501 19.4524C7.20068 19.2523 8.72016 18.7784 10.4818 17.6856Z" fill="#6061F0"/>
</svg>
