<svg width="160" height="155" viewBox="0 0 160 155" fill="none" xmlns="http://www.w3.org/2000/svg">
<g filter="url(#filter0_d_3_6348)">
<path d="M5.47697 69.9707C5.47697 106.958 35.4608 136.941 72.4477 136.941C82.0797 136.941 91.2369 134.908 99.5132 131.247C105.192 128.735 111.003 126.388 117.15 125.506C122.68 124.713 128.31 124.962 133.748 126.242L140.189 127.757C142.851 128.384 145.015 125.588 143.741 123.168C137.646 111.586 135.36 98.3764 137.211 85.4201L138.509 76.3377C139.114 72.0984 139.52 67.8092 139.114 63.5461C135.881 29.5731 107.267 3 72.4477 3C35.4608 3 5.47697 32.9838 5.47697 69.9707Z" fill="#6061F0"/>
</g>
<path d="M83.5253 76.4486C84.2197 76.4486 84.8984 76.6545 85.4757 77.0402C86.053 77.426 86.503 77.9743 86.7687 78.6157C87.0344 79.2572 87.1039 79.9631 86.9684 80.6441C86.833 81.325 86.4986 81.9506 86.0077 82.4415C85.5167 82.9325 84.8912 83.2668 84.2102 83.4023C83.5292 83.5377 82.8234 83.4682 82.1819 83.2025C81.5404 82.9368 80.9922 82.4869 80.6064 81.9095C80.2207 81.3322 80.0148 80.6535 80.0148 79.9592C80.0148 79.0281 80.3846 78.1352 81.043 77.4768C81.7014 76.8185 82.5943 76.4486 83.5253 76.4486ZM108.099 72.938C109.03 72.938 109.923 73.3079 110.582 73.9663C111.24 74.6246 111.61 75.5176 111.61 76.4486V83.4697C111.61 84.4008 111.24 85.2937 110.582 85.9521C109.923 86.6104 109.03 86.9803 108.099 86.9803C107.168 86.9803 106.275 86.6104 105.617 85.9521C104.959 85.2937 104.589 84.4008 104.589 83.4697V76.4486C104.589 75.5176 104.959 74.6246 105.617 73.9663C106.275 73.3079 107.168 72.938 108.099 72.938ZM37.888 72.938C38.8191 72.938 39.712 73.3079 40.3704 73.9663C41.0287 74.6246 41.3986 75.5176 41.3986 76.4486V83.4697C41.3986 84.4008 41.0287 85.2937 40.3704 85.9521C39.712 86.6104 38.8191 86.9803 37.888 86.9803C36.957 86.9803 36.064 86.6104 35.4057 85.9521C34.7473 85.2937 34.3775 84.4008 34.3775 83.4697V76.4486C34.3775 75.5176 34.7473 74.6246 35.4057 73.9663C36.064 73.3079 36.957 72.938 37.888 72.938ZM55.4408 48.3641H69.4831V43.8706C68.4219 43.2579 67.5396 42.3783 66.9237 41.319C66.3078 40.2597 65.9799 39.0577 65.9725 37.8324C65.9725 35.9703 66.7122 34.1844 68.029 32.8677C69.3457 31.551 71.1315 30.8113 72.9936 30.8113C74.8558 30.8113 76.6416 31.551 77.9583 32.8677C79.275 34.1844 80.0148 35.9703 80.0148 37.8324C80.0074 39.0577 79.6795 40.2597 79.0636 41.319C78.4477 42.3783 77.5654 43.2579 76.5042 43.8706V48.3641H90.5465C93.3396 48.3641 96.0184 49.4737 97.9935 51.4488C99.9686 53.4238 101.078 56.1026 101.078 58.8958V90.4909C101.078 93.284 99.9686 95.9628 97.9935 97.9379C96.0184 99.913 93.3396 101.023 90.5465 101.023H55.4408C52.6477 101.023 49.9689 99.913 47.9938 97.9379C46.0187 95.9628 44.9091 93.284 44.9091 90.4909V58.8958C44.9091 56.1026 46.0187 53.4238 47.9938 51.4488C49.9689 49.4737 52.6477 48.3641 55.4408 48.3641ZM66.9555 55.3852L68.7108 62.4064H77.2765L79.0318 55.3852H66.9555ZM51.9303 90.4909C51.9303 91.4219 52.3001 92.3149 52.9585 92.9732C53.6169 93.6316 54.5098 94.0014 55.4408 94.0014H90.5465C91.4775 94.0014 92.3704 93.6316 93.0288 92.9732C93.6872 92.3149 94.057 91.4219 94.057 90.4909V58.8958C94.057 57.9647 93.6872 57.0718 93.0288 56.4134C92.3704 55.7551 91.4775 55.3852 90.5465 55.3852H86.2636L83.5253 66.7595C83.3331 67.5384 82.8799 68.2279 82.2412 68.7134C81.6025 69.1988 80.8167 69.4508 80.0148 69.4275H65.9725C65.1706 69.4508 64.3848 69.1988 63.7461 68.7134C63.1074 68.2279 62.6542 67.5384 62.462 66.7595L59.7237 55.3852H55.4408C54.5098 55.3852 53.6169 55.7551 52.9585 56.4134C52.3001 57.0718 51.9303 57.9647 51.9303 58.8958V90.4909ZM62.462 76.4486C63.1563 76.4486 63.835 76.6545 64.4123 77.0402C64.9896 77.426 65.4396 77.9743 65.7053 78.6157C65.971 79.2572 66.0405 79.9631 65.9051 80.6441C65.7696 81.325 65.4353 81.9506 64.9443 82.4415C64.4533 82.9325 63.8278 83.2668 63.1468 83.4023C62.4659 83.5377 61.76 83.4682 61.1185 83.2025C60.4771 82.9368 59.9288 82.4869 59.543 81.9095C59.1573 81.3322 58.9514 80.6535 58.9514 79.9592C58.9514 79.0281 59.3213 78.1352 59.9796 77.4768C60.638 76.8185 61.5309 76.4486 62.462 76.4486Z" fill="white"/>
<path d="M43.1071 16.7574L39.4355 26.6798L29.5131 30.3515L39.4355 34.0231L43.1071 43.9455L46.7788 34.0231L56.7012 30.3515L46.7788 26.6798L43.1071 16.7574Z" fill="#F3F9FF" fill-opacity="0.5"/>
<path d="M30.4483 41.9822L28.419 47.4663L22.9349 49.4956L28.419 51.5249L30.4483 57.009L32.4776 51.5249L37.9617 49.4956L32.4776 47.4663L30.4483 41.9822Z" fill="white" fill-opacity="0.34"/>
<defs>
<filter id="filter0_d_3_6348" x="0.422581" y="0.472804" width="158.857" height="154.159" filterUnits="userSpaceOnUse" color-interpolation-filters="sRGB">
<feFlood flood-opacity="0" result="BackgroundImageFix"/>
<feColorMatrix in="SourceAlpha" type="matrix" values="0 0 0 0 0 0 0 0 0 0 0 0 0 0 0 0 0 0 127 0" result="hardAlpha"/>
<feOffset dx="5.05439" dy="7.58159"/>
<feGaussianBlur stdDeviation="5.05439"/>
<feComposite in2="hardAlpha" operator="out"/>
<feColorMatrix type="matrix" values="0 0 0 0 0 0 0 0 0 0 0 0 0 0 0 0 0 0 0.25 0"/>
<feBlend mode="normal" in2="BackgroundImageFix" result="effect1_dropShadow_3_6348"/>
<feBlend mode="normal" in="SourceGraphic" in2="effect1_dropShadow_3_6348" result="shape"/>
</filter>
</defs>
</svg>
