<svg width="21" height="21" viewBox="0 0 21 21" fill="none" xmlns="http://www.w3.org/2000/svg">
<path d="M10.9296 1.38049C10.7541 0.906284 10.0834 0.906285 9.90791 1.38049L7.77878 7.13439C7.72361 7.28348 7.60606 7.40102 7.45697 7.45619L1.70308 9.58533C1.22887 9.7608 1.22887 10.4315 1.70308 10.607L7.45697 12.7361C7.60606 12.7913 7.72361 12.9088 7.77878 13.0579L9.90791 18.8118C10.0834 19.286 10.7541 19.286 10.9296 18.8118L13.0587 13.0579C13.1139 12.9088 13.2314 12.7913 13.3805 12.7361L19.1344 10.607C19.6086 10.4315 19.6086 9.7608 19.1344 9.58533L13.3805 7.45619C13.2314 7.40102 13.1139 7.28348 13.0587 7.13439L10.9296 1.38049Z" fill="#6061F0"/>
</svg>
