<svg width="292" height="162" viewBox="0 0 292 162" fill="none" xmlns="http://www.w3.org/2000/svg">
<path d="M132.217 32.5535L118.695 18.0296L80.6324 63.6044L30.5502 0V37.5617L0 18.0296L23.0378 63.6044L62.6028 85.6406L30.5502 130.715L45.5748 119.196L42.5699 128.711L113.186 84.1382L116.692 32.5535H132.217Z" fill="url(#paint0_linear_2_2368)"/>
<path d="M125.659 106.003V51.2733H147.455C151.088 51.2733 154.213 51.7274 156.831 52.6355C159.448 53.5437 161.478 55.0128 162.921 57.0428C164.416 59.0194 165.164 61.6904 165.164 65.0559C165.164 67.353 164.924 69.3029 164.443 70.9055C164.016 72.4547 163.321 73.7903 162.36 74.9121C161.451 75.9805 160.249 76.9688 158.754 77.877C160.356 78.4646 161.745 79.2659 162.921 80.2809C164.149 81.2425 165.084 82.5513 165.725 84.2074C166.366 85.81 166.687 87.9469 166.687 90.6179C166.687 93.5561 166.233 96.0134 165.324 97.99C164.416 99.9666 163.107 101.543 161.398 102.718C159.742 103.893 157.792 104.748 155.548 105.282C153.305 105.763 150.847 106.003 148.176 106.003H125.659ZM136.717 97.8298H147.375C149.245 97.8298 150.794 97.6161 152.023 97.1887C153.305 96.7079 154.266 95.8799 154.907 94.7046C155.602 93.5294 155.949 91.9 155.949 89.8166C155.949 88.214 155.682 86.9051 155.148 85.8901C154.614 84.8751 153.919 84.1272 153.064 83.6465C152.21 83.1122 151.248 82.7383 150.18 82.5246C149.165 82.3109 148.15 82.2041 147.135 82.2041H136.717V97.8298ZM136.717 74.3512H147.054C149.779 74.3512 151.729 73.7101 152.904 72.428C154.133 71.1459 154.747 69.1961 154.747 66.5784C154.747 64.0676 154.079 62.2513 152.744 61.1295C151.462 60.0076 149.432 59.4467 146.654 59.4467H136.717V74.3512ZM172.638 106.003V65.7771H183.295V106.003H172.638ZM172.638 59.3666V50.2316H183.375V59.3666H172.638ZM204.858 106.965C201.92 106.965 199.543 106.537 197.727 105.683C195.91 104.828 194.602 103.359 193.8 101.275C193.052 99.1386 192.678 96.1737 192.678 92.3808V74.6717H187.951V65.7771H192.678V55.1196H203.336V65.7771H213.593V74.6717H203.336V89.5762C203.336 91.6596 203.416 93.289 203.576 94.4642C203.79 95.6395 204.217 96.4675 204.858 96.9483C205.499 97.4291 206.488 97.6695 207.823 97.6695C208.197 97.6695 208.758 97.6428 209.506 97.5894C210.254 97.5359 211.002 97.4825 211.75 97.4291C212.498 97.3757 213.112 97.3223 213.593 97.2688L213.913 105.843C212.631 106.057 211.082 106.297 209.266 106.564C207.503 106.831 206.034 106.965 204.858 106.965ZM234.374 106.885C229.94 106.885 226.414 106.137 223.796 104.641C221.232 103.145 219.389 100.875 218.267 97.8298C217.145 94.7848 216.584 90.9651 216.584 86.3709C216.584 81.4028 217.279 77.3428 218.668 74.1909C220.11 71.0391 222.194 68.7153 224.918 67.2195C227.643 65.6703 231.008 64.8957 235.015 64.8957C240.944 64.8957 245.405 66.3915 248.397 69.383C251.442 72.3746 252.964 77.1024 252.964 83.5663L252.483 89.4961H227.322C227.375 92.4876 227.99 94.7313 229.165 96.2271C230.34 97.7229 232.37 98.4708 235.255 98.4708C236.911 98.4708 238.727 98.4441 240.704 98.3907C242.681 98.2838 244.63 98.177 246.554 98.0701C248.53 97.9633 250.213 97.8565 251.602 97.7496L251.842 105.202C250.507 105.416 248.824 105.656 246.794 105.923C244.764 106.19 242.654 106.404 240.464 106.564C238.327 106.778 236.297 106.885 234.374 106.885ZM227.322 82.6849H242.307C242.307 79.0522 241.719 76.5147 240.544 75.0724C239.422 73.63 237.579 72.9088 235.015 72.9088C232.504 72.9088 230.581 73.6567 229.245 75.1525C227.963 76.6483 227.322 79.1591 227.322 82.6849ZM273.109 106.885C271.346 106.885 269.45 106.778 267.42 106.564C265.443 106.404 263.573 106.19 261.81 105.923C260.101 105.656 258.632 105.389 257.403 105.122L257.724 97.1887C259.113 97.349 260.662 97.5359 262.371 97.7496C264.134 97.9633 265.844 98.1503 267.5 98.3105C269.209 98.4174 270.598 98.4708 271.667 98.4708C273.269 98.4708 274.578 98.3373 275.593 98.0701C276.661 97.803 277.463 97.3757 277.997 96.788C278.531 96.147 278.798 95.2388 278.798 94.0636C278.798 93.1554 278.558 92.4609 278.077 91.9801C277.65 91.4994 276.795 91.0987 275.513 90.7782C274.284 90.4042 272.468 90.0303 270.064 89.6563C267.072 89.229 264.588 88.6146 262.612 87.8133C260.689 87.012 259.273 85.8367 258.365 84.2875C257.457 82.6849 257.002 80.5213 257.002 77.7969C257.002 74.4847 257.724 71.8938 259.166 70.0241C260.608 68.1543 262.532 66.8455 264.935 66.0976C267.339 65.2963 269.957 64.8957 272.788 64.8957C274.658 64.8957 276.581 65.0025 278.558 65.2162C280.534 65.3765 282.404 65.5901 284.167 65.8572C285.93 66.1243 287.399 66.3915 288.574 66.6586L288.254 74.7519C286.918 74.5382 285.369 74.3512 283.606 74.1909C281.843 73.9772 280.08 73.817 278.317 73.7101C276.608 73.6033 275.166 73.5499 273.99 73.5499C272.762 73.5499 271.667 73.6834 270.705 73.9505C269.743 74.1642 268.995 74.5382 268.461 75.0724C267.98 75.6066 267.74 76.4079 267.74 77.4763C267.74 78.2242 267.954 78.8386 268.381 79.3194C268.809 79.8001 269.61 80.2275 270.785 80.6015C272.014 80.922 273.777 81.2425 276.074 81.563C279.386 82.0438 282.03 82.7116 284.007 83.5663C285.983 84.4211 287.399 85.6497 288.254 87.2524C289.162 88.855 289.616 91.0186 289.616 93.743C289.616 98.6044 288.174 102.023 285.289 104C282.458 105.923 278.398 106.885 273.109 106.885Z" fill="url(#paint1_linear_2_2368)"/>
<path d="M130.353 147.14C129.617 146.315 129.07 145.498 128.712 144.691C128.371 143.884 128.2 143.023 128.2 142.108C128.2 141.193 128.362 140.35 128.685 139.579C129.026 138.808 129.492 138.144 130.084 137.588C130.676 137.032 131.366 136.601 132.156 136.296C132.945 135.973 133.788 135.812 134.685 135.812C135.367 135.812 136.03 135.902 136.676 136.081C137.322 136.26 137.896 136.521 138.398 136.861L137.133 138.718C136.416 138.27 135.618 138.045 134.739 138.045C133.949 138.045 133.25 138.225 132.64 138.583C132.03 138.924 131.546 139.4 131.187 140.009C130.846 140.619 130.676 141.31 130.676 142.081C130.676 142.727 130.801 143.337 131.053 143.911C131.304 144.467 131.689 145.041 132.209 145.633L130.353 147.14ZM126.909 147.57V145.337H139.69V147.57H126.909ZM143.622 147.57V145.337H146.85V147.57H143.622ZM141.119 147.57V128.359H143.622V147.57H141.119ZM146.85 147.57V145.337C147.066 145.337 147.209 145.436 147.281 145.633C147.353 145.83 147.388 146.099 147.388 146.44C147.388 146.781 147.353 147.059 147.281 147.274C147.209 147.472 147.066 147.57 146.85 147.57ZM144.726 147.57V145.337H151.452V147.57H144.726ZM151.452 147.57V145.337C151.686 145.337 151.829 145.436 151.883 145.633C151.955 145.83 151.991 146.099 151.991 146.44C151.991 146.781 151.955 147.059 151.883 147.274C151.829 147.472 151.686 147.57 151.452 147.57ZM144.726 147.57C144.493 147.57 144.349 147.472 144.295 147.274C144.224 147.059 144.188 146.781 144.188 146.44C144.188 146.099 144.224 145.83 144.295 145.633C144.349 145.436 144.493 145.337 144.726 145.337V147.57ZM149.338 147.57V145.337H156.064V147.57H149.338ZM156.064 147.57V145.337C156.297 145.337 156.441 145.436 156.495 145.633C156.567 145.83 156.602 146.099 156.602 146.44C156.602 146.781 156.567 147.059 156.495 147.274C156.441 147.472 156.297 147.57 156.064 147.57ZM149.338 147.57C149.104 147.57 148.961 147.472 148.907 147.274C148.835 147.059 148.799 146.781 148.799 146.44C148.799 146.099 148.835 145.83 148.907 145.633C148.961 145.436 149.104 145.337 149.338 145.337V147.57ZM153.949 147.57V145.337H160.676V147.57H153.949ZM160.676 147.57V145.337C160.909 145.337 161.053 145.436 161.107 145.633C161.178 145.83 161.214 146.099 161.214 146.44C161.214 146.781 161.178 147.059 161.107 147.274C161.053 147.472 160.909 147.57 160.676 147.57ZM153.949 147.57C153.716 147.57 153.573 147.472 153.519 147.274C153.447 147.059 153.411 146.781 153.411 146.44C153.411 146.099 153.447 145.83 153.519 145.633C153.573 145.436 153.716 145.337 153.949 145.337V147.57ZM158.561 147.57V145.337H165.288V147.57H158.561ZM165.288 147.57V145.337C165.521 145.337 165.665 145.436 165.718 145.633C165.79 145.83 165.826 146.099 165.826 146.44C165.826 146.781 165.79 147.059 165.718 147.274C165.665 147.472 165.521 147.57 165.288 147.57ZM158.561 147.57C158.328 147.57 158.184 147.472 158.131 147.274C158.059 147.059 158.023 146.781 158.023 146.44C158.023 146.099 158.059 145.83 158.131 145.633C158.184 145.436 158.328 145.337 158.561 145.337V147.57ZM163.173 147.57V145.337H169.9V147.57H163.173ZM169.9 147.57V145.337C170.133 145.337 170.276 145.436 170.33 145.633C170.402 145.83 170.438 146.099 170.438 146.44C170.438 146.781 170.402 147.059 170.33 147.274C170.276 147.472 170.133 147.57 169.9 147.57ZM163.173 147.57C162.94 147.57 162.796 147.472 162.742 147.274C162.671 147.059 162.635 146.781 162.635 146.44C162.635 146.099 162.671 145.83 162.742 145.633C162.796 145.436 162.94 145.337 163.173 145.337V147.57ZM167.785 147.57V145.337H174.511V147.57H167.785ZM174.511 147.57V145.337C174.745 145.337 174.888 145.436 174.942 145.633C175.014 145.83 175.05 146.099 175.05 146.44C175.05 146.781 175.014 147.059 174.942 147.274C174.888 147.472 174.745 147.57 174.511 147.57ZM167.785 147.57C167.552 147.57 167.408 147.472 167.354 147.274C167.283 147.059 167.247 146.781 167.247 146.44C167.247 146.099 167.283 145.83 167.354 145.633C167.408 145.436 167.552 145.337 167.785 145.337V147.57ZM172.397 147.57V145.337H179.123V147.57H172.397ZM179.123 147.57V145.337C179.356 145.337 179.5 145.436 179.554 145.633C179.625 145.83 179.661 146.099 179.661 146.44C179.661 146.781 179.625 147.059 179.554 147.274C179.5 147.472 179.356 147.57 179.123 147.57ZM172.397 147.57C172.163 147.57 172.02 147.472 171.966 147.274C171.894 147.059 171.858 146.781 171.858 146.44C171.858 146.099 171.894 145.83 171.966 145.633C172.02 145.436 172.163 145.337 172.397 145.337V147.57ZM177.008 147.57V145.337H183.735V147.57H177.008ZM183.735 147.57V145.337C183.968 145.337 184.112 145.436 184.166 145.633C184.237 145.83 184.273 146.099 184.273 146.44C184.273 146.781 184.237 147.059 184.166 147.274C184.112 147.472 183.968 147.57 183.735 147.57ZM177.008 147.57C176.775 147.57 176.632 147.472 176.578 147.274C176.506 147.059 176.47 146.781 176.47 146.44C176.47 146.099 176.506 145.83 176.578 145.633C176.632 145.436 176.775 145.337 177.008 145.337V147.57ZM181.62 147.57V145.337H188.347V147.57H181.62ZM188.347 147.57V145.337C188.58 145.337 188.723 145.436 188.777 145.633C188.849 145.83 188.885 146.099 188.885 146.44C188.885 146.781 188.849 147.059 188.777 147.274C188.723 147.472 188.58 147.57 188.347 147.57ZM181.62 147.57C181.387 147.57 181.243 147.472 181.19 147.274C181.118 147.059 181.082 146.781 181.082 146.44C181.082 146.099 181.118 145.83 181.19 145.633C181.243 145.436 181.387 145.337 181.62 145.337V147.57ZM186.232 147.57V145.337H199.685L198.824 146.09V141.597C198.824 140.646 198.699 139.866 198.448 139.256C198.214 138.628 197.856 138.171 197.371 137.884C196.887 137.579 196.286 137.426 195.569 137.426H189.676L187.954 134.87L189.192 132.529C189.389 132.171 189.595 131.794 189.811 131.399C190.044 130.987 190.322 130.52 190.645 130C190.985 129.462 191.416 128.816 191.936 128.063L194.035 129.274C193.533 130.045 193.12 130.682 192.797 131.184C192.492 131.686 192.232 132.126 192.017 132.503C191.802 132.861 191.595 133.22 191.398 133.579L190.133 136L189.595 135.193H195.569C196.699 135.193 197.64 135.391 198.394 135.785C199.147 136.162 199.73 136.664 200.143 137.292C200.573 137.92 200.878 138.619 201.057 139.391C201.255 140.144 201.353 140.879 201.353 141.597V147.57H186.232ZM186.232 147.57C185.999 147.57 185.855 147.472 185.801 147.274C185.73 147.059 185.694 146.781 185.694 146.44C185.694 146.099 185.73 145.83 185.801 145.633C185.855 145.436 185.999 145.337 186.232 145.337V147.57ZM212.82 147.57V145.337H215.726V147.57H212.82ZM202.273 147.57V145.337H212.228L210.318 147.032V141.516C210.318 140.207 210.165 139.175 209.86 138.422C209.573 137.669 209.098 137.139 208.434 136.834C207.771 136.512 206.874 136.35 205.744 136.35H203.564V134.09H205.744C207.233 134.09 208.506 134.332 209.564 134.816C210.623 135.283 211.43 136.063 211.986 137.157C212.542 138.234 212.82 139.687 212.82 141.516V147.57H202.273ZM215.726 147.57V145.337C215.941 145.337 216.085 145.436 216.157 145.633C216.228 145.83 216.264 146.099 216.264 146.44C216.264 146.781 216.228 147.059 216.157 147.274C216.085 147.472 215.941 147.57 215.726 147.57ZM204.129 131.668V129.058H206.659V131.668H204.129ZM213.612 147.57V145.337H220.339V147.57H213.612ZM220.339 147.57V145.337C220.572 145.337 220.716 145.436 220.769 145.633C220.841 145.83 220.877 146.099 220.877 146.44C220.877 146.781 220.841 147.059 220.769 147.274C220.716 147.472 220.572 147.57 220.339 147.57ZM213.612 147.57C213.379 147.57 213.236 147.472 213.182 147.274C213.11 147.059 213.074 146.781 213.074 146.44C213.074 146.099 213.11 145.83 213.182 145.633C213.236 145.436 213.379 145.337 213.612 145.337V147.57ZM218.224 147.57V145.337H224.951V147.57H218.224ZM224.951 147.57V145.337C225.184 145.337 225.327 145.436 225.381 145.633C225.453 145.83 225.489 146.099 225.489 146.44C225.489 146.781 225.453 147.059 225.381 147.274C225.327 147.472 225.184 147.57 224.951 147.57ZM218.224 147.57C217.991 147.57 217.847 147.472 217.794 147.274C217.722 147.059 217.686 146.781 217.686 146.44C217.686 146.099 217.722 145.83 217.794 145.633C217.847 145.436 217.991 145.337 218.224 145.337V147.57ZM222.836 147.57V145.337H227.006L225.715 146.359V134.09H228.244V147.57H222.836ZM222.836 147.57C222.603 147.57 222.459 147.472 222.405 147.274C222.334 147.059 222.298 146.781 222.298 146.44C222.298 146.099 222.334 145.83 222.405 145.633C222.459 145.436 222.603 145.337 222.836 145.337V147.57ZM225.715 152.656V150.046H228.244V152.656H225.715ZM247.155 147.57V145.337H250.034V147.57H247.155ZM233.756 156.503C233.576 155.499 233.415 154.539 233.272 153.624C233.146 152.709 233.083 151.92 233.083 151.256C233.083 150.037 233.298 148.978 233.729 148.081C234.177 147.203 234.814 146.53 235.639 146.063C236.464 145.579 237.442 145.337 238.572 145.337C238.877 145.337 239.299 145.337 239.837 145.337C240.375 145.337 240.994 145.337 241.693 145.337C242.411 145.337 243.155 145.337 243.927 145.337C244.716 145.337 245.487 145.337 246.241 145.337L244.653 146.763V140.951C244.653 139.785 244.518 138.87 244.249 138.207C243.998 137.543 243.541 137.068 242.877 136.781C242.231 136.494 241.343 136.35 240.213 136.35C239.478 136.35 238.743 136.404 238.007 136.512C237.272 136.601 236.698 136.736 236.285 136.915L237.819 135.408C237.711 135.839 237.603 136.386 237.496 137.05C237.406 137.696 237.325 138.386 237.254 139.122C237.2 139.857 237.173 140.583 237.173 141.301C237.173 142.036 237.2 142.763 237.254 143.48C237.325 144.198 237.397 144.826 237.469 145.364C237.559 145.902 237.63 146.27 237.684 146.467L235.316 147.14C235.245 146.907 235.155 146.503 235.047 145.929C234.94 145.355 234.841 144.673 234.751 143.884C234.68 143.077 234.644 142.216 234.644 141.301C234.644 140.422 234.689 139.57 234.778 138.745C234.868 137.902 234.967 137.139 235.074 136.458C235.2 135.776 235.316 135.229 235.424 134.816C235.837 134.655 236.473 134.494 237.334 134.332C238.213 134.171 239.182 134.09 240.24 134.09C241.209 134.09 242.07 134.18 242.823 134.359C243.577 134.538 244.223 134.808 244.761 135.166C245.317 135.525 245.774 135.973 246.133 136.512C246.492 137.05 246.752 137.696 246.913 138.449C247.075 139.184 247.155 140.027 247.155 140.978V147.57C246.402 147.57 245.586 147.57 244.707 147.57C243.846 147.57 243.003 147.57 242.178 147.57C241.352 147.57 240.617 147.57 239.971 147.57C239.343 147.57 238.877 147.57 238.572 147.57C238.285 147.57 237.971 147.606 237.63 147.678C237.29 147.768 236.958 147.929 236.635 148.162C236.33 148.413 236.079 148.781 235.881 149.265C235.684 149.768 235.585 150.431 235.585 151.256C235.585 151.938 235.648 152.709 235.774 153.57C235.899 154.449 236.043 155.427 236.204 156.503H233.756ZM250.034 147.57V145.337C250.268 145.337 250.411 145.436 250.465 145.633C250.537 145.83 250.572 146.099 250.572 146.44C250.572 146.781 250.537 147.059 250.465 147.274C250.411 147.472 250.268 147.57 250.034 147.57ZM247.917 147.57V145.337H254.644V147.57H247.917ZM254.644 147.57V145.337C254.877 145.337 255.021 145.436 255.075 145.633C255.146 145.83 255.182 146.099 255.182 146.44C255.182 146.781 255.146 147.059 255.075 147.274C255.021 147.472 254.877 147.57 254.644 147.57ZM247.917 147.57C247.684 147.57 247.541 147.472 247.487 147.274C247.415 147.059 247.379 146.781 247.379 146.44C247.379 146.099 247.415 145.83 247.487 145.633C247.541 145.436 247.684 145.337 247.917 145.337V147.57ZM258.181 126.081C257.571 126.081 257.105 125.857 256.782 125.408C256.477 124.942 256.325 124.305 256.325 123.498V122.664H257.347V123.498C257.347 124.072 257.419 124.476 257.562 124.709C257.706 124.924 257.912 125.032 258.181 125.032C258.576 125.032 258.836 124.808 258.962 124.359C259.105 123.893 259.087 123.148 258.908 122.126L259.93 121.937C260.163 123.211 260.136 124.225 259.849 124.978C259.58 125.713 259.024 126.081 258.181 126.081ZM255.491 126.081C254.648 126.081 254.082 125.713 253.795 124.978C253.526 124.225 253.508 123.211 253.742 121.937L254.764 122.126C254.585 123.148 254.558 123.893 254.683 124.359C254.827 124.808 255.096 125.032 255.491 125.032C255.76 125.032 255.966 124.924 256.109 124.709C256.253 124.476 256.325 124.072 256.325 123.498V122.664H257.347V123.498C257.347 124.305 257.186 124.942 256.863 125.408C256.558 125.857 256.1 126.081 255.491 126.081ZM256.119 147.57V145.337H259.024V147.57H256.119ZM253.616 147.57V128.359H256.119V147.57H253.616ZM250.414 147.57V145.337H253.616V147.57H250.414ZM250.414 147.57C250.181 147.57 250.038 147.472 249.984 147.274C249.912 147.059 249.876 146.781 249.876 146.44C249.876 146.099 249.912 145.83 249.984 145.633C250.038 145.436 250.181 145.337 250.414 145.337V147.57ZM259.024 147.57V145.337C259.24 145.337 259.383 145.436 259.455 145.633C259.527 145.83 259.563 146.099 259.563 146.44C259.563 146.781 259.527 147.059 259.455 147.274C259.383 147.472 259.24 147.57 259.024 147.57ZM256.918 147.57V145.337H263.645V147.57H256.918ZM263.645 147.57V145.337C263.878 145.337 264.021 145.436 264.075 145.633C264.147 145.83 264.183 146.099 264.183 146.44C264.183 146.781 264.147 147.059 264.075 147.274C264.021 147.472 263.878 147.57 263.645 147.57ZM256.918 147.57C256.685 147.57 256.541 147.472 256.487 147.274C256.416 147.059 256.38 146.781 256.38 146.44C256.38 146.099 256.416 145.83 256.487 145.633C256.541 145.436 256.685 145.337 256.918 145.337V147.57ZM261.53 147.57V145.337H265.727C266.714 145.337 267.656 145.167 268.552 144.826C269.467 144.485 270.31 144.037 271.082 143.48C271.853 142.924 272.517 142.306 273.073 141.624C273.647 140.942 274.095 140.252 274.418 139.552C274.741 138.852 274.902 138.189 274.902 137.561V135.92L276.194 137.938C275.171 137.4 274.158 137.005 273.153 136.754C272.167 136.485 271.207 136.35 270.274 136.35C269.36 136.35 268.4 136.485 267.395 136.754C266.409 137.005 265.413 137.4 264.409 137.938L265.7 135.92V137.561C265.7 138.189 265.862 138.852 266.185 139.552C266.508 140.252 266.947 140.942 267.503 141.624C268.059 142.306 268.723 142.924 269.494 143.48C270.265 144.037 271.1 144.485 271.996 144.826C272.911 145.167 273.862 145.337 274.849 145.337H278.885V147.57H275.171C273.772 147.57 272.463 147.346 271.243 146.898C270.023 146.449 268.92 145.857 267.934 145.122C266.947 144.368 266.095 143.552 265.377 142.673C264.678 141.776 264.14 140.888 263.763 140.009C263.386 139.113 263.198 138.296 263.198 137.561V135.973C263.969 135.561 264.759 135.22 265.566 134.951C266.373 134.664 267.18 134.449 267.987 134.305C268.795 134.162 269.557 134.09 270.274 134.09C271.028 134.09 271.799 134.162 272.588 134.305C273.378 134.449 274.176 134.664 274.983 134.951C275.808 135.22 276.606 135.561 277.378 135.973V137.561C277.378 138.296 277.189 139.113 276.813 140.009C276.436 140.888 275.889 141.776 275.171 142.673C274.472 143.552 273.629 144.368 272.642 145.122C271.656 145.857 270.552 146.449 269.333 146.898C268.113 147.346 266.803 147.57 265.404 147.57H261.53ZM261.53 147.57C261.297 147.57 261.153 147.472 261.099 147.274C261.028 147.059 260.992 146.781 260.992 146.44C260.992 146.099 261.028 145.83 261.099 145.633C261.153 145.436 261.297 145.337 261.53 145.337V147.57ZM278.885 147.57V145.337C279.118 145.337 279.261 145.436 279.315 145.633C279.387 145.83 279.423 146.099 279.423 146.44C279.423 146.781 279.387 147.059 279.315 147.274C279.261 147.472 279.118 147.57 278.885 147.57ZM276.757 147.57V145.337H283.484V147.57H276.757ZM283.484 147.57V145.337C283.717 145.337 283.86 145.436 283.914 145.633C283.986 145.83 284.022 146.099 284.022 146.44C284.022 146.781 283.986 147.059 283.914 147.274C283.86 147.472 283.717 147.57 283.484 147.57ZM276.757 147.57C276.524 147.57 276.38 147.472 276.327 147.274C276.255 147.059 276.219 146.781 276.219 146.44C276.219 146.099 276.255 145.83 276.327 145.633C276.38 145.436 276.524 145.337 276.757 145.337V147.57ZM281.369 147.57V145.337H285.943L284.651 146.359V134.09H287.154V147.57H281.369ZM281.369 147.57C281.136 147.57 280.992 147.472 280.938 147.274C280.867 147.059 280.831 146.781 280.831 146.44C280.831 146.099 280.867 145.83 280.938 145.633C280.992 145.436 281.136 145.337 281.369 145.337V147.57ZM282.445 131.911V129.301H284.974V131.911H282.445ZM286.131 131.911V129.301H288.661V131.911H286.131Z" fill="#6061F0"/>
<defs>
<linearGradient id="paint0_linear_2_2368" x1="-5.71319e-07" y1="104.024" x2="94.6961" y2="-43.6892" gradientUnits="userSpaceOnUse">
<stop stop-color="#6047ED"/>
<stop offset="1" stop-color="#4DDFFF"/>
</linearGradient>
<linearGradient id="paint1_linear_2_2368" x1="120.197" y1="121.375" x2="222.984" y2="-59.3294" gradientUnits="userSpaceOnUse">
<stop stop-color="#6047ED"/>
<stop offset="1" stop-color="#4DDFFF"/>
</linearGradient>
</defs>
</svg>
