<svg width="20" height="21" viewBox="0 0 20 21" fill="none" xmlns="http://www.w3.org/2000/svg">
<g clip-path="url(#clip0_3_5511)">
<path d="M19.954 1.79866C19.9994 1.68508 20.0106 1.56066 19.986 1.44081C19.9614 1.32097 19.9022 1.21097 19.8157 1.12446C19.7292 1.03796 19.6192 0.97874 19.4993 0.954155C19.3795 0.929571 19.2551 0.940701 19.1415 0.986164L0.957734 8.25991H0.956484L0.391484 8.48491C0.284472 8.5276 0.191341 8.59903 0.122379 8.69133C0.0534163 8.78362 0.0113066 8.89318 0.000700899 9.0079C-0.00990478 9.12262 0.0114064 9.23804 0.0622803 9.34142C0.113154 9.44479 0.191611 9.53208 0.288984 9.59366L0.801484 9.91866L0.802734 9.92116L7.04648 13.8937L11.019 20.1374L11.0215 20.1399L11.3465 20.6524C11.4083 20.7494 11.4956 20.8275 11.5989 20.878C11.7022 20.9286 11.8174 20.9497 11.9319 20.9389C12.0464 20.9282 12.1558 20.8861 12.2479 20.8172C12.34 20.7484 12.4113 20.6554 12.454 20.5487L19.954 1.79866ZM17.6627 4.16116L8.29523 13.5287L8.02648 13.1062C7.97724 13.0286 7.91152 12.9629 7.83398 12.9137L7.41148 12.6449L16.779 3.27741L18.2515 2.68866L17.664 4.16116H17.6627Z" fill="#6061F0"/>
</g>
<defs>
<clipPath id="clip0_3_5511">
<rect width="20" height="20" fill="white" transform="translate(0 0.941406)"/>
</clipPath>
</defs>
</svg>
